<mxfile host="app.diagrams.net" modified="2024-03-26T11:32:19.328Z" agent="Mozilla/5.0 (Windows NT 10.0; Win64; x64) AppleWebKit/537.36 (KHTML, like Gecko) Chrome/122.0.0.0 Safari/537.36 Edg/122.0.0.0" etag="tkZXjAykrWJze2lKtCbA" version="24.0.7" type="device">
  <diagram name="Страница — 1" id="BVJE3lZtq1kFPK1EYA-J">
    <mxGraphModel dx="1795" dy="493" grid="1" gridSize="10" guides="1" tooltips="1" connect="1" arrows="1" fold="1" page="1" pageScale="1" pageWidth="827" pageHeight="1169" math="0" shadow="0">
      <root>
        <mxCell id="0" />
        <mxCell id="1" parent="0" />
        <mxCell id="txK_vcDwyt-smCfSmoeM-4" value="" style="edgeStyle=orthogonalEdgeStyle;rounded=0;orthogonalLoop=1;jettySize=auto;html=1;" edge="1" parent="1" source="CK1jUhTTW7ounfkzw69f-3" target="CK1jUhTTW7ounfkzw69f-4">
          <mxGeometry relative="1" as="geometry" />
        </mxCell>
        <mxCell id="CK1jUhTTW7ounfkzw69f-3" value="Open a website" style="rounded=1;whiteSpace=wrap;html=1;" parent="1" vertex="1">
          <mxGeometry x="241.66" y="110" width="150" height="40" as="geometry" />
        </mxCell>
        <mxCell id="CK1jUhTTW7ounfkzw69f-4" value="Log in as an authorized&amp;nbsp;&lt;div&gt;user to book a room&lt;/div&gt;" style="html=1;whiteSpace=wrap;aspect=fixed;shape=isoRectangle;" parent="1" vertex="1">
          <mxGeometry x="225.01" y="205" width="183.31" height="110" as="geometry" />
        </mxCell>
        <mxCell id="CK1jUhTTW7ounfkzw69f-84" style="edgeStyle=orthogonalEdgeStyle;rounded=0;orthogonalLoop=1;jettySize=auto;html=1;entryX=0.5;entryY=0;entryDx=0;entryDy=0;" parent="1" source="CK1jUhTTW7ounfkzw69f-11" target="CK1jUhTTW7ounfkzw69f-83" edge="1">
          <mxGeometry relative="1" as="geometry" />
        </mxCell>
        <mxCell id="CK1jUhTTW7ounfkzw69f-11" value="Log In" style="rounded=1;whiteSpace=wrap;html=1;" parent="1" vertex="1">
          <mxGeometry x="494.75" y="250" width="113.5" height="20" as="geometry" />
        </mxCell>
        <mxCell id="CK1jUhTTW7ounfkzw69f-50" style="edgeStyle=orthogonalEdgeStyle;rounded=0;orthogonalLoop=1;jettySize=auto;html=1;" parent="1" source="CK1jUhTTW7ounfkzw69f-12" target="CK1jUhTTW7ounfkzw69f-48" edge="1">
          <mxGeometry relative="1" as="geometry" />
        </mxCell>
        <mxCell id="CK1jUhTTW7ounfkzw69f-12" value="Sign up" style="rounded=1;whiteSpace=wrap;html=1;" parent="1" vertex="1">
          <mxGeometry x="29.590000000000003" y="250" width="107.49" height="20" as="geometry" />
        </mxCell>
        <mxCell id="CK1jUhTTW7ounfkzw69f-13" value="" style="html=1;verticalAlign=bottom;endArrow=block;curved=0;rounded=0;exitX=-0.012;exitY=0.501;exitDx=0;exitDy=0;exitPerimeter=0;" parent="1" source="CK1jUhTTW7ounfkzw69f-4" edge="1">
          <mxGeometry width="80" relative="1" as="geometry">
            <mxPoint x="280" y="215" as="sourcePoint" />
            <mxPoint x="140" y="260" as="targetPoint" />
            <Array as="points" />
          </mxGeometry>
        </mxCell>
        <mxCell id="CK1jUhTTW7ounfkzw69f-15" value="[Unregistered user]" style="edgeLabel;html=1;align=center;verticalAlign=middle;resizable=0;points=[];" parent="CK1jUhTTW7ounfkzw69f-13" vertex="1" connectable="0">
          <mxGeometry x="0.2485" y="-2" relative="1" as="geometry">
            <mxPoint x="19" y="-23" as="offset" />
          </mxGeometry>
        </mxCell>
        <mxCell id="CK1jUhTTW7ounfkzw69f-14" value="" style="html=1;verticalAlign=bottom;endArrow=block;curved=0;rounded=0;exitX=1.018;exitY=0.507;exitDx=0;exitDy=0;exitPerimeter=0;" parent="1" source="CK1jUhTTW7ounfkzw69f-4" target="CK1jUhTTW7ounfkzw69f-11" edge="1">
          <mxGeometry width="80" relative="1" as="geometry">
            <mxPoint x="360" y="215" as="sourcePoint" />
            <mxPoint x="177" y="290" as="targetPoint" />
            <Array as="points">
              <mxPoint x="480" y="260" />
              <mxPoint x="490" y="260" />
            </Array>
          </mxGeometry>
        </mxCell>
        <mxCell id="CK1jUhTTW7ounfkzw69f-59" value="[Registered user]" style="edgeLabel;html=1;align=center;verticalAlign=middle;resizable=0;points=[];" parent="CK1jUhTTW7ounfkzw69f-14" vertex="1" connectable="0">
          <mxGeometry x="0.4757" y="3" relative="1" as="geometry">
            <mxPoint x="-29" y="-20" as="offset" />
          </mxGeometry>
        </mxCell>
        <mxCell id="CK1jUhTTW7ounfkzw69f-17" value="Search for a room" style="rounded=1;whiteSpace=wrap;html=1;" parent="1" vertex="1">
          <mxGeometry x="293.99999999999994" y="630" width="150" height="40" as="geometry" />
        </mxCell>
        <mxCell id="CK1jUhTTW7ounfkzw69f-18" value="Search by room reviews" style="rounded=1;whiteSpace=wrap;html=1;" parent="1" vertex="1">
          <mxGeometry x="-60.00000000000006" y="815" width="150" height="40" as="geometry" />
        </mxCell>
        <mxCell id="CK1jUhTTW7ounfkzw69f-19" value="Search by room price" style="rounded=1;whiteSpace=wrap;html=1;" parent="1" vertex="1">
          <mxGeometry x="136.49999999999994" y="815" width="150" height="40" as="geometry" />
        </mxCell>
        <mxCell id="CK1jUhTTW7ounfkzw69f-20" value="Search by Category (Luxe/Standard/Deluxe/Family)" style="rounded=1;whiteSpace=wrap;html=1;" parent="1" vertex="1">
          <mxGeometry x="334.5" y="810" width="195.5" height="45" as="geometry" />
        </mxCell>
        <mxCell id="CK1jUhTTW7ounfkzw69f-32" style="edgeStyle=orthogonalEdgeStyle;rounded=0;orthogonalLoop=1;jettySize=auto;html=1;entryX=0.5;entryY=0;entryDx=0;entryDy=0;" parent="1" source="CK1jUhTTW7ounfkzw69f-23" target="CK1jUhTTW7ounfkzw69f-18" edge="1">
          <mxGeometry relative="1" as="geometry">
            <mxPoint x="6.5" y="815" as="targetPoint" />
          </mxGeometry>
        </mxCell>
        <mxCell id="CK1jUhTTW7ounfkzw69f-33" style="edgeStyle=orthogonalEdgeStyle;rounded=0;orthogonalLoop=1;jettySize=auto;html=1;exitX=0.5;exitY=1;exitDx=0;exitDy=0;exitPerimeter=0;entryX=0.5;entryY=0;entryDx=0;entryDy=0;" parent="1" source="CK1jUhTTW7ounfkzw69f-23" target="CK1jUhTTW7ounfkzw69f-19" edge="1">
          <mxGeometry relative="1" as="geometry" />
        </mxCell>
        <mxCell id="CK1jUhTTW7ounfkzw69f-34" style="edgeStyle=orthogonalEdgeStyle;rounded=0;orthogonalLoop=1;jettySize=auto;html=1;exitX=1;exitY=0.5;exitDx=0;exitDy=0;exitPerimeter=0;entryX=0.5;entryY=0;entryDx=0;entryDy=0;" parent="1" source="CK1jUhTTW7ounfkzw69f-23" target="CK1jUhTTW7ounfkzw69f-20" edge="1">
          <mxGeometry relative="1" as="geometry">
            <mxPoint x="412" y="815" as="targetPoint" />
          </mxGeometry>
        </mxCell>
        <mxCell id="CK1jUhTTW7ounfkzw69f-23" value="" style="verticalLabelPosition=bottom;verticalAlign=top;html=1;shape=mxgraph.basic.patternFillRect;fillStyle=diag;step=5;fillStrokeWidth=0.2;fillStrokeColor=#dddddd;fillColor=#330000;" parent="1" vertex="1">
          <mxGeometry x="166.5" y="755" width="90" height="10" as="geometry" />
        </mxCell>
        <mxCell id="CK1jUhTTW7ounfkzw69f-28" value="" style="verticalLabelPosition=bottom;verticalAlign=top;html=1;shape=mxgraph.basic.patternFillRect;fillStyle=diag;step=5;fillStrokeWidth=0.2;fillStrokeColor=#dddddd;fillColor=#330000;" parent="1" vertex="1">
          <mxGeometry x="166.5" y="925" width="90" height="10" as="geometry" />
        </mxCell>
        <mxCell id="CK1jUhTTW7ounfkzw69f-31" style="edgeStyle=orthogonalEdgeStyle;rounded=0;orthogonalLoop=1;jettySize=auto;html=1;entryX=0.5;entryY=0;entryDx=0;entryDy=0;entryPerimeter=0;" parent="1" source="CK1jUhTTW7ounfkzw69f-17" target="CK1jUhTTW7ounfkzw69f-23" edge="1">
          <mxGeometry relative="1" as="geometry" />
        </mxCell>
        <mxCell id="CK1jUhTTW7ounfkzw69f-35" style="edgeStyle=orthogonalEdgeStyle;rounded=0;orthogonalLoop=1;jettySize=auto;html=1;entryX=0;entryY=0.25;entryDx=0;entryDy=0;entryPerimeter=0;exitX=0.5;exitY=1;exitDx=0;exitDy=0;" parent="1" source="CK1jUhTTW7ounfkzw69f-18" target="CK1jUhTTW7ounfkzw69f-28" edge="1">
          <mxGeometry relative="1" as="geometry">
            <mxPoint y="915" as="sourcePoint" />
          </mxGeometry>
        </mxCell>
        <mxCell id="CK1jUhTTW7ounfkzw69f-36" style="edgeStyle=orthogonalEdgeStyle;rounded=0;orthogonalLoop=1;jettySize=auto;html=1;exitX=0.5;exitY=1;exitDx=0;exitDy=0;entryX=0.5;entryY=0;entryDx=0;entryDy=0;entryPerimeter=0;" parent="1" source="CK1jUhTTW7ounfkzw69f-19" target="CK1jUhTTW7ounfkzw69f-28" edge="1">
          <mxGeometry relative="1" as="geometry" />
        </mxCell>
        <mxCell id="CK1jUhTTW7ounfkzw69f-37" style="edgeStyle=orthogonalEdgeStyle;rounded=0;orthogonalLoop=1;jettySize=auto;html=1;exitX=0.5;exitY=1;exitDx=0;exitDy=0;entryX=1;entryY=0.5;entryDx=0;entryDy=0;entryPerimeter=0;" parent="1" source="CK1jUhTTW7ounfkzw69f-20" target="CK1jUhTTW7ounfkzw69f-28" edge="1">
          <mxGeometry relative="1" as="geometry">
            <mxPoint x="412" y="855" as="sourcePoint" />
          </mxGeometry>
        </mxCell>
        <mxCell id="CK1jUhTTW7ounfkzw69f-41" style="edgeStyle=orthogonalEdgeStyle;rounded=0;orthogonalLoop=1;jettySize=auto;html=1;entryX=0.5;entryY=0;entryDx=0;entryDy=0;" parent="1" target="CK1jUhTTW7ounfkzw69f-39" edge="1">
          <mxGeometry relative="1" as="geometry">
            <mxPoint x="-16.66000000000014" y="1360" as="sourcePoint" />
          </mxGeometry>
        </mxCell>
        <mxCell id="CK1jUhTTW7ounfkzw69f-43" style="edgeStyle=orthogonalEdgeStyle;rounded=0;orthogonalLoop=1;jettySize=auto;html=1;entryX=0.5;entryY=0;entryDx=0;entryDy=0;" parent="1" target="CK1jUhTTW7ounfkzw69f-42" edge="1">
          <mxGeometry relative="1" as="geometry">
            <mxPoint x="-18.67" y="1520" as="sourcePoint" />
          </mxGeometry>
        </mxCell>
        <mxCell id="CK1jUhTTW7ounfkzw69f-39" value="Confirm booking" style="rounded=1;whiteSpace=wrap;html=1;" parent="1" vertex="1">
          <mxGeometry x="-87.49" y="1400" width="141.66" height="40" as="geometry" />
        </mxCell>
        <mxCell id="CK1jUhTTW7ounfkzw69f-42" value="" style="ellipse;html=1;shape=endState;fillColor=#000000;strokeColor=#ff0000;" parent="1" vertex="1">
          <mxGeometry x="-33.33" y="1590" width="30" height="30" as="geometry" />
        </mxCell>
        <mxCell id="CK1jUhTTW7ounfkzw69f-45" style="edgeStyle=orthogonalEdgeStyle;rounded=0;orthogonalLoop=1;jettySize=auto;html=1;entryX=0;entryY=0.5;entryDx=0;entryDy=0;" parent="1" source="CK1jUhTTW7ounfkzw69f-44" target="CK1jUhTTW7ounfkzw69f-3" edge="1">
          <mxGeometry relative="1" as="geometry" />
        </mxCell>
        <mxCell id="CK1jUhTTW7ounfkzw69f-44" value="" style="strokeWidth=2;html=1;shape=mxgraph.flowchart.start_2;whiteSpace=wrap;fillColor=#000000;" parent="1" vertex="1">
          <mxGeometry x="80" y="120" width="20" height="20" as="geometry" />
        </mxCell>
        <mxCell id="CK1jUhTTW7ounfkzw69f-47" value="" style="html=1;verticalAlign=bottom;endArrow=open;dashed=1;endSize=8;curved=0;rounded=0;exitX=0.5;exitY=1;exitDx=0;exitDy=0;entryX=0.5;entryY=0;entryDx=0;entryDy=0;entryPerimeter=0;" parent="1" target="CK1jUhTTW7ounfkzw69f-44" edge="1">
          <mxGeometry relative="1" as="geometry">
            <mxPoint x="90" y="70" as="sourcePoint" />
            <mxPoint x="170" y="430" as="targetPoint" />
          </mxGeometry>
        </mxCell>
        <mxCell id="CK1jUhTTW7ounfkzw69f-48" value="user data entry" style="rounded=1;whiteSpace=wrap;html=1;" parent="1" vertex="1">
          <mxGeometry x="22.5" y="310" width="121.66" height="30" as="geometry" />
        </mxCell>
        <mxCell id="CK1jUhTTW7ounfkzw69f-63" style="edgeStyle=orthogonalEdgeStyle;rounded=0;orthogonalLoop=1;jettySize=auto;html=1;entryX=0.5;entryY=0;entryDx=0;entryDy=0;exitX=1;exitY=0.5;exitDx=0;exitDy=0;" parent="1" source="txK_vcDwyt-smCfSmoeM-10" target="CK1jUhTTW7ounfkzw69f-52" edge="1">
          <mxGeometry relative="1" as="geometry" />
        </mxCell>
        <mxCell id="CK1jUhTTW7ounfkzw69f-64" value="[verification passed]" style="edgeLabel;html=1;align=center;verticalAlign=middle;resizable=0;points=[];" parent="CK1jUhTTW7ounfkzw69f-63" vertex="1" connectable="0">
          <mxGeometry x="-0.0154" y="1" relative="1" as="geometry">
            <mxPoint x="54" y="21" as="offset" />
          </mxGeometry>
        </mxCell>
        <mxCell id="CK1jUhTTW7ounfkzw69f-52" value="Create usser account" style="rounded=1;whiteSpace=wrap;html=1;" parent="1" vertex="1">
          <mxGeometry x="110" y="490" width="130" height="30" as="geometry" />
        </mxCell>
        <mxCell id="CK1jUhTTW7ounfkzw69f-82" style="edgeStyle=orthogonalEdgeStyle;rounded=0;orthogonalLoop=1;jettySize=auto;html=1;entryX=0.5;entryY=0;entryDx=0;entryDy=0;" parent="1" source="CK1jUhTTW7ounfkzw69f-65" target="CK1jUhTTW7ounfkzw69f-17" edge="1">
          <mxGeometry relative="1" as="geometry" />
        </mxCell>
        <mxCell id="CK1jUhTTW7ounfkzw69f-65" value="" style="verticalLabelPosition=bottom;verticalAlign=top;html=1;shape=mxgraph.basic.patternFillRect;fillStyle=diag;step=5;fillStrokeWidth=0.2;fillStrokeColor=#dddddd;fillColor=#330000;" parent="1" vertex="1">
          <mxGeometry x="324" y="570" width="90" height="10" as="geometry" />
        </mxCell>
        <mxCell id="CK1jUhTTW7ounfkzw69f-67" style="edgeStyle=orthogonalEdgeStyle;rounded=0;orthogonalLoop=1;jettySize=auto;html=1;entryX=0.25;entryY=0;entryDx=0;entryDy=0;entryPerimeter=0;exitX=0.5;exitY=1;exitDx=0;exitDy=0;" parent="1" source="CK1jUhTTW7ounfkzw69f-52" target="CK1jUhTTW7ounfkzw69f-65" edge="1">
          <mxGeometry relative="1" as="geometry" />
        </mxCell>
        <mxCell id="CK1jUhTTW7ounfkzw69f-83" value="Check login and password" style="rounded=1;whiteSpace=wrap;html=1;" parent="1" vertex="1">
          <mxGeometry x="476.5" y="310" width="150" height="40" as="geometry" />
        </mxCell>
        <mxCell id="txK_vcDwyt-smCfSmoeM-1" value="&lt;span style=&quot;background-color: initial;&quot;&gt;Init state&lt;/span&gt;&lt;div&gt;&lt;div&gt;&lt;div&gt;&lt;br&gt;&lt;/div&gt;&lt;/div&gt;&lt;/div&gt;" style="shape=note;size=20;whiteSpace=wrap;html=1;align=center;" vertex="1" parent="1">
          <mxGeometry x="42.5" y="30" width="107.5" height="40" as="geometry" />
        </mxCell>
        <mxCell id="txK_vcDwyt-smCfSmoeM-2" value="Activity" style="shape=note;size=20;whiteSpace=wrap;html=1;" vertex="1" parent="1">
          <mxGeometry x="406.5" y="20" width="93.5" height="30" as="geometry" />
        </mxCell>
        <mxCell id="txK_vcDwyt-smCfSmoeM-3" value="" style="html=1;verticalAlign=bottom;endArrow=open;dashed=1;endSize=8;curved=0;rounded=0;exitX=0.391;exitY=1.032;exitDx=0;exitDy=0;entryX=1;entryY=0.25;entryDx=0;entryDy=0;exitPerimeter=0;" edge="1" parent="1" source="txK_vcDwyt-smCfSmoeM-2" target="CK1jUhTTW7ounfkzw69f-3">
          <mxGeometry relative="1" as="geometry">
            <mxPoint x="100" y="80" as="sourcePoint" />
            <mxPoint x="100" y="130" as="targetPoint" />
          </mxGeometry>
        </mxCell>
        <mxCell id="txK_vcDwyt-smCfSmoeM-5" value="Desicion" style="shape=note;size=20;whiteSpace=wrap;html=1;" vertex="1" parent="1">
          <mxGeometry x="350.5" y="360" width="93.5" height="40" as="geometry" />
        </mxCell>
        <mxCell id="txK_vcDwyt-smCfSmoeM-6" value="" style="html=1;verticalAlign=bottom;endArrow=open;dashed=1;endSize=8;curved=0;rounded=0;exitX=0.5;exitY=0;exitDx=0;exitDy=0;exitPerimeter=0;entryX=0.673;entryY=0.793;entryDx=0;entryDy=0;entryPerimeter=0;" edge="1" parent="1" source="txK_vcDwyt-smCfSmoeM-5" target="CK1jUhTTW7ounfkzw69f-4">
          <mxGeometry relative="1" as="geometry">
            <mxPoint x="463" y="82" as="sourcePoint" />
            <mxPoint x="402" y="130" as="targetPoint" />
          </mxGeometry>
        </mxCell>
        <mxCell id="txK_vcDwyt-smCfSmoeM-10" value="Checking the correctness of the entered data" style="rounded=1;whiteSpace=wrap;html=1;" vertex="1" parent="1">
          <mxGeometry x="24.160000000000025" y="380" width="120" height="60" as="geometry" />
        </mxCell>
        <mxCell id="txK_vcDwyt-smCfSmoeM-12" value="" style="endArrow=classic;html=1;rounded=0;entryX=0.5;entryY=0;entryDx=0;entryDy=0;exitX=0.5;exitY=1;exitDx=0;exitDy=0;" edge="1" parent="1" source="CK1jUhTTW7ounfkzw69f-48" target="txK_vcDwyt-smCfSmoeM-10">
          <mxGeometry width="50" height="50" relative="1" as="geometry">
            <mxPoint x="320" y="460" as="sourcePoint" />
            <mxPoint x="370" y="410" as="targetPoint" />
          </mxGeometry>
        </mxCell>
        <mxCell id="txK_vcDwyt-smCfSmoeM-13" value="" style="endArrow=classic;html=1;rounded=0;exitX=0;exitY=0.5;exitDx=0;exitDy=0;entryX=0;entryY=0.5;entryDx=0;entryDy=0;entryPerimeter=0;" edge="1" parent="1" source="txK_vcDwyt-smCfSmoeM-10" target="CK1jUhTTW7ounfkzw69f-48">
          <mxGeometry width="50" height="50" relative="1" as="geometry">
            <mxPoint x="320" y="400" as="sourcePoint" />
            <mxPoint x="370" y="350" as="targetPoint" />
            <Array as="points">
              <mxPoint x="-30" y="410" />
              <mxPoint x="-30" y="325" />
            </Array>
          </mxGeometry>
        </mxCell>
        <mxCell id="txK_vcDwyt-smCfSmoeM-14" value="[verification failed]" style="edgeLabel;html=1;align=center;verticalAlign=middle;resizable=0;points=[];" vertex="1" connectable="0" parent="1">
          <mxGeometry x="724.5040135351717" y="300.00323033852226" as="geometry" />
        </mxCell>
        <mxCell id="txK_vcDwyt-smCfSmoeM-18" value="" style="endArrow=classic;html=1;rounded=0;entryX=0.673;entryY=0.013;entryDx=0;entryDy=0;entryPerimeter=0;" edge="1" parent="1" source="CK1jUhTTW7ounfkzw69f-83" target="CK1jUhTTW7ounfkzw69f-65">
          <mxGeometry width="50" height="50" relative="1" as="geometry">
            <mxPoint x="330" y="450" as="sourcePoint" />
            <mxPoint x="551.5" y="390" as="targetPoint" />
            <Array as="points">
              <mxPoint x="550" y="480" />
              <mxPoint x="385" y="480" />
            </Array>
          </mxGeometry>
        </mxCell>
        <mxCell id="txK_vcDwyt-smCfSmoeM-20" value="" style="endArrow=classic;html=1;rounded=0;entryX=1;entryY=0.5;entryDx=0;entryDy=0;exitX=1;exitY=0.5;exitDx=0;exitDy=0;" edge="1" parent="1" source="CK1jUhTTW7ounfkzw69f-83" target="CK1jUhTTW7ounfkzw69f-11">
          <mxGeometry width="50" height="50" relative="1" as="geometry">
            <mxPoint x="390" y="450" as="sourcePoint" />
            <mxPoint x="440" y="400" as="targetPoint" />
            <Array as="points">
              <mxPoint x="670" y="330" />
              <mxPoint x="670" y="260" />
            </Array>
          </mxGeometry>
        </mxCell>
        <mxCell id="txK_vcDwyt-smCfSmoeM-22" value="join (parallel connector)" style="shape=note;size=20;whiteSpace=wrap;html=1;" vertex="1" parent="1">
          <mxGeometry x="574.5" y="490" width="135.5" height="55" as="geometry" />
        </mxCell>
        <mxCell id="txK_vcDwyt-smCfSmoeM-23" value="-" style="endArrow=open;endSize=12;dashed=1;html=1;rounded=0;entryX=1;entryY=0.25;entryDx=0;entryDy=0;entryPerimeter=0;" edge="1" parent="1" source="txK_vcDwyt-smCfSmoeM-22" target="CK1jUhTTW7ounfkzw69f-65">
          <mxGeometry width="160" relative="1" as="geometry">
            <mxPoint x="370" y="450" as="sourcePoint" />
            <mxPoint x="530" y="450" as="targetPoint" />
          </mxGeometry>
        </mxCell>
        <mxCell id="txK_vcDwyt-smCfSmoeM-24" value="join (parallel splitter)" style="shape=note;size=20;whiteSpace=wrap;html=1;" vertex="1" parent="1">
          <mxGeometry x="-42.75" y="640" width="135.5" height="55" as="geometry" />
        </mxCell>
        <mxCell id="txK_vcDwyt-smCfSmoeM-25" value="-" style="endArrow=open;endSize=12;dashed=1;html=1;rounded=0;entryX=0.25;entryY=0;entryDx=0;entryDy=0;entryPerimeter=0;exitX=0.931;exitY=1.021;exitDx=0;exitDy=0;exitPerimeter=0;" edge="1" parent="1" source="txK_vcDwyt-smCfSmoeM-24" target="CK1jUhTTW7ounfkzw69f-23">
          <mxGeometry width="160" relative="1" as="geometry">
            <mxPoint x="351" y="700.0000000000002" as="sourcePoint" />
            <mxPoint x="184" y="568" as="targetPoint" />
          </mxGeometry>
        </mxCell>
        <mxCell id="txK_vcDwyt-smCfSmoeM-26" value="Viewing room reviews" style="rounded=1;whiteSpace=wrap;html=1;" vertex="1" parent="1">
          <mxGeometry x="136.5" y="1000" width="153.5" height="50" as="geometry" />
        </mxCell>
        <mxCell id="txK_vcDwyt-smCfSmoeM-27" value="" style="endArrow=classic;html=1;rounded=0;exitX=0.5;exitY=0;exitDx=0;exitDy=0;exitPerimeter=0;" edge="1" parent="1" source="CK1jUhTTW7ounfkzw69f-28">
          <mxGeometry width="50" height="50" relative="1" as="geometry">
            <mxPoint x="140" y="1000" as="sourcePoint" />
            <mxPoint x="212" y="1000" as="targetPoint" />
          </mxGeometry>
        </mxCell>
        <mxCell id="txK_vcDwyt-smCfSmoeM-28" value="go to booking" style="rhombus;whiteSpace=wrap;html=1;" vertex="1" parent="1">
          <mxGeometry x="150" y="1099" width="131" height="70" as="geometry" />
        </mxCell>
        <mxCell id="txK_vcDwyt-smCfSmoeM-30" value="" style="endArrow=classic;html=1;rounded=0;entryX=0.5;entryY=0;entryDx=0;entryDy=0;exitX=0.518;exitY=0.989;exitDx=0;exitDy=0;exitPerimeter=0;" edge="1" parent="1" source="txK_vcDwyt-smCfSmoeM-26" target="txK_vcDwyt-smCfSmoeM-28">
          <mxGeometry width="50" height="50" relative="1" as="geometry">
            <mxPoint x="140" y="1160" as="sourcePoint" />
            <mxPoint x="190" y="1110" as="targetPoint" />
          </mxGeometry>
        </mxCell>
        <mxCell id="txK_vcDwyt-smCfSmoeM-31" value="book" style="rounded=1;whiteSpace=wrap;html=1;" vertex="1" parent="1">
          <mxGeometry x="-91.67000000000007" y="1220" width="150" height="40" as="geometry" />
        </mxCell>
        <mxCell id="txK_vcDwyt-smCfSmoeM-33" value="" style="endArrow=classic;html=1;rounded=0;entryX=0.5;entryY=0;entryDx=0;entryDy=0;exitX=0;exitY=0.5;exitDx=0;exitDy=0;" edge="1" parent="1" source="txK_vcDwyt-smCfSmoeM-28" target="txK_vcDwyt-smCfSmoeM-31">
          <mxGeometry width="50" height="50" relative="1" as="geometry">
            <mxPoint x="100" y="1250" as="sourcePoint" />
            <mxPoint x="150" y="1200" as="targetPoint" />
            <Array as="points">
              <mxPoint x="-17" y="1134" />
            </Array>
          </mxGeometry>
        </mxCell>
        <mxCell id="txK_vcDwyt-smCfSmoeM-34" value="[Yes, the room is satisfying]" style="edgeLabel;html=1;align=center;verticalAlign=middle;resizable=0;points=[];" vertex="1" connectable="0" parent="1">
          <mxGeometry x="70" y="1109.9953846153844" as="geometry">
            <mxPoint x="-1" y="7" as="offset" />
          </mxGeometry>
        </mxCell>
        <mxCell id="txK_vcDwyt-smCfSmoeM-35" value="" style="endArrow=classic;html=1;rounded=0;entryX=1;entryY=0.5;entryDx=0;entryDy=0;exitX=1;exitY=0.5;exitDx=0;exitDy=0;" edge="1" parent="1" source="txK_vcDwyt-smCfSmoeM-28" target="CK1jUhTTW7ounfkzw69f-17">
          <mxGeometry width="50" height="50" relative="1" as="geometry">
            <mxPoint x="180" y="1230" as="sourcePoint" />
            <mxPoint x="230" y="1180" as="targetPoint" />
            <Array as="points">
              <mxPoint x="600" y="1134" />
              <mxPoint x="600" y="650" />
            </Array>
          </mxGeometry>
        </mxCell>
        <mxCell id="txK_vcDwyt-smCfSmoeM-36" value="[No, the room isn&#39;t satisfying]" style="edgeLabel;html=1;align=center;verticalAlign=middle;resizable=0;points=[];" vertex="1" connectable="0" parent="1">
          <mxGeometry x="414" y="1119.9953846153844" as="geometry">
            <mxPoint x="-16" y="-6" as="offset" />
          </mxGeometry>
        </mxCell>
        <mxCell id="txK_vcDwyt-smCfSmoeM-37" value="Choose the currency for payment" style="rounded=1;whiteSpace=wrap;html=1;" vertex="1" parent="1">
          <mxGeometry x="-91.67000000000007" y="1320" width="150" height="40" as="geometry" />
        </mxCell>
        <mxCell id="txK_vcDwyt-smCfSmoeM-38" value="" style="endArrow=classic;html=1;rounded=0;entryX=0.5;entryY=0;entryDx=0;entryDy=0;exitX=0.5;exitY=1;exitDx=0;exitDy=0;" edge="1" parent="1" source="txK_vcDwyt-smCfSmoeM-31" target="txK_vcDwyt-smCfSmoeM-37">
          <mxGeometry width="50" height="50" relative="1" as="geometry">
            <mxPoint x="150" y="1350" as="sourcePoint" />
            <mxPoint x="200" y="1300" as="targetPoint" />
          </mxGeometry>
        </mxCell>
        <mxCell id="txK_vcDwyt-smCfSmoeM-39" value="Pay for a room" style="rounded=1;whiteSpace=wrap;html=1;" vertex="1" parent="1">
          <mxGeometry x="-82.5" y="1480" width="131.66" height="40" as="geometry" />
        </mxCell>
        <mxCell id="txK_vcDwyt-smCfSmoeM-40" value="" style="endArrow=classic;html=1;rounded=0;exitX=0.5;exitY=1;exitDx=0;exitDy=0;entryX=0.5;entryY=0;entryDx=0;entryDy=0;" edge="1" parent="1" source="CK1jUhTTW7ounfkzw69f-39" target="txK_vcDwyt-smCfSmoeM-39">
          <mxGeometry width="50" height="50" relative="1" as="geometry">
            <mxPoint x="170" y="1450" as="sourcePoint" />
            <mxPoint x="220" y="1400" as="targetPoint" />
          </mxGeometry>
        </mxCell>
      </root>
    </mxGraphModel>
  </diagram>
</mxfile>
